<?xml version="1.0" encoding="UTF-8"?>
<svg xmlns="http://www.w3.org/2000/svg" xmlns:xlink="http://www.w3.org/1999/xlink" width="375pt" height="374.999991pt" viewBox="0 0 375 374.999991" version="1.2">
<defs>
<clipPath id="clip1">
  <path d="M 201 128 L 222.671875 128 L 222.671875 156 L 201 156 Z M 201 128 "/>
</clipPath>
<clipPath id="clip2">
  <path d="M 132.953125 25 L 211 25 L 211 84 L 132.953125 84 Z M 132.953125 25 "/>
</clipPath>
</defs>
<g id="surface1">
<path style=" stroke:none;fill-rule:nonzero;fill:rgb(70.588684%,70.199585%,70.199585%);fill-opacity:1;" d="M 181.953125 346.964844 C 181.953125 346.964844 181.207031 352.582031 185.5625 353.46875 C 189.910156 354.359375 198.96875 355.480469 204.835938 355.976562 C 206.472656 356.117188 211.300781 354.828125 211.300781 351.851562 L 181.953125 346.964844 "/>
<path style=" stroke:none;fill-rule:nonzero;fill:rgb(15.689087%,13.729858%,12.939453%);fill-opacity:1;" d="M 198.1875 344.570312 C 196.207031 343.535156 195.15625 343.390625 193.65625 343.28125 L 181.910156 343.28125 C 181.910156 343.28125 181.390625 347.472656 182.738281 349.382812 C 185.1875 352.84375 189.640625 352.566406 195.460938 353.46875 C 204.035156 354.800781 211.375 354.871094 211.375 351.589844 C 211.375 349.863281 206.121094 348.726562 198.1875 344.570312 "/>
<path style=" stroke:none;fill-rule:nonzero;fill:rgb(94.898987%,59.999084%,41.178894%);fill-opacity:1;" d="M 194.570312 343.347656 C 194.320312 344.351562 191.855469 345.007812 188.515625 345.007812 C 185.171875 345.007812 182.9375 344.40625 182.460938 343.347656 C 182.070312 342.496094 185.171875 341.6875 188.515625 341.6875 C 191.855469 341.6875 194.800781 342.449219 194.570312 343.347656 "/>
<path style=" stroke:none;fill-rule:nonzero;fill:rgb(100%,100%,100%);fill-opacity:1;" d="M 197.769531 344.914062 C 198.003906 345.054688 198.066406 345.332031 197.90625 345.539062 L 195.40625 348.601562 C 195.242188 348.804688 194.921875 348.863281 194.691406 348.71875 C 194.453125 348.582031 194.394531 348.300781 194.550781 348.09375 L 197.054688 345.035156 C 197.210938 344.824219 197.53125 344.773438 197.769531 344.914062 "/>
<path style=" stroke:none;fill-rule:nonzero;fill:rgb(100%,100%,100%);fill-opacity:1;" d="M 199.578125 345.832031 C 199.8125 345.972656 199.875 346.25 199.71875 346.457031 L 197.273438 349.453125 C 197.117188 349.65625 196.796875 349.710938 196.5625 349.574219 C 196.324219 349.433594 196.265625 349.152344 196.421875 348.945312 L 198.867188 345.953125 C 199.023438 345.746094 199.34375 345.691406 199.578125 345.832031 "/>
<path style=" stroke:none;fill-rule:nonzero;fill:rgb(100%,100%,100%);fill-opacity:1;" d="M 201.476562 346.738281 C 201.714844 346.871094 201.773438 347.15625 201.617188 347.363281 L 199.375 350.214844 C 199.21875 350.421875 198.898438 350.476562 198.664062 350.335938 C 198.425781 350.199219 198.367188 349.914062 198.523438 349.710938 L 200.761719 346.851562 C 200.925781 346.648438 201.246094 346.597656 201.476562 346.738281 "/>
<path style=" stroke:none;fill-rule:nonzero;fill:rgb(100%,100%,100%);fill-opacity:1;" d="M 203.46875 347.613281 C 203.703125 347.757812 203.765625 348.035156 203.605469 348.242188 L 201.59375 350.757812 C 201.433594 350.960938 201.109375 351.015625 200.878906 350.875 C 200.644531 350.738281 200.582031 350.457031 200.742188 350.25 L 202.753906 347.738281 C 202.914062 347.53125 203.234375 347.472656 203.46875 347.613281 "/>
<path style=" stroke:none;fill-rule:nonzero;fill:rgb(100%,100%,100%);fill-opacity:1;" d="M 205.480469 348.515625 C 205.714844 348.65625 205.777344 348.9375 205.617188 349.144531 L 203.777344 351.371094 C 203.617188 351.578125 203.296875 351.632812 203.066406 351.492188 C 202.832031 351.355469 202.769531 351.070312 202.925781 350.863281 L 204.765625 348.636719 C 204.921875 348.433594 205.242188 348.378906 205.480469 348.515625 "/>
<path style=" stroke:none;fill-rule:nonzero;fill:rgb(70.588684%,70.199585%,70.199585%);fill-opacity:1;" d="M 171.3125 346.964844 C 171.3125 346.964844 172.050781 352.582031 167.703125 353.46875 C 163.351562 354.359375 154.296875 355.480469 148.429688 355.976562 C 146.789062 356.117188 141.964844 354.828125 141.964844 351.851562 L 171.3125 346.964844 "/>
<path style=" stroke:none;fill-rule:nonzero;fill:rgb(15.689087%,13.729858%,12.939453%);fill-opacity:1;" d="M 155.074219 344.570312 C 157.058594 343.535156 158.101562 343.390625 159.605469 343.28125 L 171.351562 343.28125 C 171.351562 343.28125 171.875 347.472656 170.523438 349.382812 C 168.078125 352.84375 163.621094 352.566406 157.800781 353.46875 C 149.21875 354.800781 141.890625 354.871094 141.890625 351.589844 C 141.890625 349.863281 147.136719 348.726562 155.074219 344.570312 "/>
<path style=" stroke:none;fill-rule:nonzero;fill:rgb(94.898987%,59.999084%,41.178894%);fill-opacity:1;" d="M 158.691406 343.347656 C 158.945312 344.351562 161.402344 345.007812 164.746094 345.007812 C 168.089844 345.007812 170.328125 344.40625 170.800781 343.347656 C 171.1875 342.496094 168.089844 341.6875 164.746094 341.6875 C 161.402344 341.6875 158.464844 342.449219 158.691406 343.347656 "/>
<path style=" stroke:none;fill-rule:nonzero;fill:rgb(100%,100%,100%);fill-opacity:1;" d="M 155.492188 344.914062 C 155.257812 345.054688 155.199219 345.332031 155.351562 345.539062 L 157.859375 348.601562 C 158.015625 348.804688 158.335938 348.863281 158.574219 348.71875 C 158.808594 348.582031 158.871094 348.300781 158.707031 348.09375 L 156.207031 345.035156 C 156.046875 344.824219 155.726562 344.773438 155.492188 344.914062 "/>
<path style=" stroke:none;fill-rule:nonzero;fill:rgb(100%,100%,100%);fill-opacity:1;" d="M 153.683594 345.832031 C 153.449219 345.972656 153.386719 346.25 153.546875 346.457031 L 155.988281 349.453125 C 156.148438 349.65625 156.464844 349.710938 156.703125 349.574219 C 156.9375 349.433594 156.996094 349.152344 156.839844 348.945312 L 154.394531 345.953125 C 154.234375 345.746094 153.914062 345.691406 153.683594 345.832031 "/>
<path style=" stroke:none;fill-rule:nonzero;fill:rgb(100%,100%,100%);fill-opacity:1;" d="M 151.78125 346.738281 C 151.546875 346.871094 151.484375 347.15625 151.644531 347.363281 L 153.886719 350.214844 C 154.046875 350.421875 154.363281 350.476562 154.597656 350.335938 C 154.835938 350.199219 154.894531 349.914062 154.738281 349.710938 L 152.5 346.851562 C 152.339844 346.648438 152.015625 346.597656 151.78125 346.738281 "/>
<path style=" stroke:none;fill-rule:nonzero;fill:rgb(100%,100%,100%);fill-opacity:1;" d="M 149.792969 347.613281 C 149.5625 347.757812 149.496094 348.035156 149.65625 348.242188 L 151.671875 350.757812 C 151.828125 350.960938 152.148438 351.015625 152.378906 350.875 C 152.621094 350.738281 152.675781 350.457031 152.519531 350.25 L 150.511719 347.738281 C 150.347656 347.53125 150.027344 347.472656 149.792969 347.613281 "/>
<path style=" stroke:none;fill-rule:nonzero;fill:rgb(100%,100%,100%);fill-opacity:1;" d="M 147.785156 348.515625 C 147.550781 348.65625 147.488281 348.9375 147.644531 349.144531 L 149.484375 351.371094 C 149.644531 351.578125 149.964844 351.632812 150.195312 351.492188 C 150.433594 351.355469 150.492188 351.070312 150.332031 350.863281 L 148.5 348.636719 C 148.339844 348.433594 148.015625 348.378906 147.785156 348.515625 "/>
<path style=" stroke:none;fill-rule:nonzero;fill:rgb(45.098877%,66.268921%,78.819275%);fill-opacity:1;" d="M 208.140625 203.785156 L 149.015625 203.785156 C 149.015625 203.785156 154.304688 319.390625 156.214844 343.347656 L 172.773438 343.347656 C 172.773438 343.347656 172.496094 276.800781 175.898438 226.101562 C 175.898438 226.101562 179.226562 226.148438 179.355469 226.121094 C 182.898438 276.125 181.625 343.347656 181.625 343.347656 L 197.363281 343.347656 C 199.273438 319.390625 208.140625 203.785156 208.140625 203.785156 "/>
<path style=" stroke:none;fill-rule:nonzero;fill:rgb(97.24884%,61.178589%,38.819885%);fill-opacity:1;" d="M 172.089844 124.253906 L 184.605469 124.253906 C 184.167969 120.390625 182.90625 116.53125 183.617188 112.664062 C 180.035156 111.457031 176.453125 111.457031 172.867188 112.664062 C 173.589844 116.53125 172.527344 120.390625 172.089844 124.253906 "/>
<path style=" stroke:none;fill-rule:nonzero;fill:rgb(11.759949%,10.978699%,10.978699%);fill-opacity:1;" d="M 208.140625 129.054688 L 184.410156 124.253906 L 172.460938 124.253906 L 148.734375 129.054688 L 148.734375 215.957031 L 208.140625 215.957031 L 208.140625 129.054688 "/>
<path style=" stroke:none;fill-rule:nonzero;fill:rgb(97.24884%,61.178589%,38.819885%);fill-opacity:1;" d="M 218.179688 142.269531 L 206.285156 142.269531 C 208.214844 155.5625 209.921875 173.046875 211.558594 178.609375 L 220.816406 177.894531 C 221.570312 172.003906 220.433594 163.292969 219.648438 153.507812 C 219.328125 149.519531 218.792969 145.742188 218.179688 142.269531 "/>
<path style=" stroke:none;fill-rule:nonzero;fill:rgb(97.24884%,61.178589%,38.819885%);fill-opacity:1;" d="M 211.097656 175.226562 C 210.625 180.703125 211.359375 185.910156 211.359375 192.671875 C 211.359375 205.636719 213.921875 212.515625 214.320312 219.667969 L 219.066406 219.71875 C 219.734375 212.347656 220.359375 205.109375 220.359375 192.140625 C 220.359375 185.382812 221.257812 180.703125 220.792969 175.226562 L 211.097656 175.226562 "/>
<path style=" stroke:none;fill-rule:nonzero;fill:rgb(94.898987%,59.999084%,41.178894%);fill-opacity:1;" d="M 219.011719 219.351562 C 219.011719 219.351562 220.695312 228.199219 219.277344 230.242188 C 217.855469 232.289062 211.917969 234.828125 210.347656 233.109375 C 209.90625 232.625 210.855469 231.957031 212.464844 231.398438 C 214.269531 230.777344 215.296875 229.316406 215.535156 228.082031 C 215.710938 227.167969 215.871094 225.671875 215.355469 225.441406 C 214.84375 225.210938 213.824219 226.265625 213.320312 227.335938 C 212.601562 228.863281 211.878906 229.644531 211.160156 229.324219 C 210.609375 229.070312 210.621094 228.316406 211.453125 226.550781 C 212.285156 224.789062 214.273438 219.324219 214.273438 219.324219 L 219.011719 219.351562 "/>
<g clip-path="url(#clip1)" clip-rule="nonzero">
<path style=" stroke:none;fill-rule:nonzero;fill:rgb(11.759949%,10.978699%,10.978699%);fill-opacity:1;" d="M 222.652344 150.945312 L 218.875 136.832031 C 217.40625 131.316406 212.332031 127.890625 207.550781 129.179688 C 202.765625 130.476562 200.082031 136 201.558594 141.519531 L 205.328125 155.632812 L 222.652344 150.945312 "/>
</g>
<path style=" stroke:none;fill-rule:nonzero;fill:rgb(97.24884%,61.178589%,38.819885%);fill-opacity:1;" d="M 138.839844 142.269531 L 150.738281 142.269531 C 148.804688 155.5625 147.101562 173.046875 145.464844 178.609375 L 136.207031 177.894531 C 135.453125 172.003906 136.59375 163.292969 137.375 153.507812 C 137.695312 149.519531 138.230469 145.742188 138.839844 142.269531 "/>
<path style=" stroke:none;fill-rule:nonzero;fill:rgb(97.24884%,61.178589%,38.819885%);fill-opacity:1;" d="M 145.925781 175.226562 C 146.398438 180.703125 145.664062 185.910156 145.664062 192.671875 C 145.664062 205.636719 143.105469 212.515625 142.703125 219.667969 L 137.957031 219.71875 C 137.289062 212.347656 136.664062 205.109375 136.664062 192.140625 C 136.664062 185.382812 135.761719 180.703125 136.230469 175.226562 L 145.925781 175.226562 "/>
<path style=" stroke:none;fill-rule:nonzero;fill:rgb(94.898987%,59.999084%,41.178894%);fill-opacity:1;" d="M 138.011719 219.351562 C 138.011719 219.351562 136.328125 228.199219 137.746094 230.242188 C 139.167969 232.289062 145.105469 234.828125 146.675781 233.109375 C 147.117188 232.625 146.167969 231.957031 144.558594 231.398438 C 142.753906 230.777344 141.726562 229.316406 141.488281 228.082031 C 141.3125 227.167969 141.152344 225.671875 141.671875 225.441406 C 142.175781 225.210938 143.195312 226.265625 143.703125 227.335938 C 144.421875 228.863281 145.144531 229.644531 145.859375 229.324219 C 146.414062 229.070312 146.402344 228.316406 145.566406 226.550781 C 144.738281 224.789062 142.75 219.324219 142.75 219.324219 L 138.011719 219.351562 "/>
<path style=" stroke:none;fill-rule:nonzero;fill:rgb(11.759949%,10.978699%,10.978699%);fill-opacity:1;" d="M 134.371094 150.945312 L 138.144531 136.832031 C 139.617188 131.316406 144.691406 127.890625 149.472656 129.179688 C 154.257812 130.476562 156.941406 136 155.464844 141.519531 L 151.695312 155.632812 L 134.371094 150.945312 "/>
<path style=" stroke:none;fill-rule:nonzero;fill:rgb(97.24884%,61.178589%,38.819885%);fill-opacity:1;" d="M 172.089844 124.253906 C 172.109375 127.714844 174.90625 130.515625 178.347656 130.515625 C 181.789062 130.515625 184.585938 127.714844 184.605469 124.253906 L 172.089844 124.253906 "/>
<path style=" stroke:none;fill-rule:nonzero;fill:rgb(97.24884%,61.178589%,38.819885%);fill-opacity:1;" d="M 215.726562 83.070312 C 215.726562 87.296875 213.363281 90.722656 210.445312 90.722656 C 207.523438 90.722656 205.15625 87.296875 205.15625 83.070312 C 205.15625 78.851562 207.523438 75.425781 210.445312 75.425781 C 213.363281 75.425781 215.726562 78.851562 215.726562 83.070312 "/>
<path style=" stroke:none;fill-rule:nonzero;fill:rgb(97.24884%,61.178589%,38.819885%);fill-opacity:1;" d="M 151.554688 83.070312 C 151.554688 87.296875 149.191406 90.722656 146.269531 90.722656 C 143.351562 90.722656 140.984375 87.296875 140.984375 83.070312 C 140.984375 78.851562 143.351562 75.425781 146.269531 75.425781 C 149.191406 75.425781 151.554688 78.851562 151.554688 83.070312 "/>
<path style=" stroke:none;fill-rule:nonzero;fill:rgb(97.24884%,61.178589%,38.819885%);fill-opacity:1;" d="M 210.507812 86.753906 C 210.507812 93.203125 196.09375 119.144531 178.3125 119.144531 C 160.535156 119.144531 146.125 93.523438 146.125 86.753906 L 146.125 59.914062 C 146.125 42.023438 160.535156 27.523438 178.3125 27.523438 C 196.09375 27.523438 210.507812 42.023438 210.507812 59.914062 L 210.507812 86.753906 "/>
<path style=" stroke:none;fill-rule:nonzero;fill:rgb(15.689087%,13.729858%,12.939453%);fill-opacity:1;" d="M 163.867188 81.296875 C 163.867188 83.40625 162.738281 85.113281 161.339844 85.113281 C 159.945312 85.113281 158.816406 83.40625 158.816406 81.296875 C 158.816406 79.195312 159.945312 77.488281 161.339844 77.488281 C 162.738281 77.488281 163.867188 79.195312 163.867188 81.296875 "/>
<path style=" stroke:none;fill-rule:nonzero;fill:rgb(15.689087%,13.729858%,12.939453%);fill-opacity:1;" d="M 195.214844 81.296875 C 195.214844 83.40625 194.085938 85.113281 192.691406 85.113281 C 191.292969 85.113281 190.167969 83.40625 190.167969 81.296875 C 190.167969 79.195312 191.292969 77.488281 192.691406 77.488281 C 194.085938 77.488281 195.214844 79.195312 195.214844 81.296875 "/>
<path style=" stroke:none;fill-rule:nonzero;fill:rgb(15.689087%,13.729858%,12.939453%);fill-opacity:1;" d="M 197.480469 74.417969 C 195.476562 74 193.996094 73.65625 192.554688 73.644531 C 191.839844 73.636719 191.121094 73.691406 190.339844 73.832031 C 189.546875 73.960938 188.714844 74.207031 187.695312 74.417969 C 188.007812 73.414062 188.675781 72.605469 189.539062 72.003906 C 190.410156 71.410156 191.507812 71.078125 192.59375 71.101562 C 193.679688 71.121094 194.734375 71.476562 195.59375 72.050781 C 196.433594 72.636719 197.152344 73.40625 197.480469 74.417969 "/>
<path style=" stroke:none;fill-rule:nonzero;fill:rgb(15.689087%,13.729858%,12.939453%);fill-opacity:1;" d="M 166.390625 74.417969 C 164.390625 74 162.910156 73.65625 161.464844 73.644531 C 160.746094 73.636719 160.035156 73.691406 159.25 73.832031 C 158.460938 73.960938 157.632812 74.207031 156.605469 74.417969 C 156.921875 73.414062 157.589844 72.605469 158.457031 72.003906 C 159.324219 71.410156 160.417969 71.078125 161.507812 71.101562 C 162.597656 71.121094 163.648438 71.476562 164.503906 72.050781 C 165.347656 72.636719 166.058594 73.40625 166.390625 74.417969 "/>
<path style=" stroke:none;fill-rule:nonzero;fill:rgb(84.309387%,41.569519%,26.669312%);fill-opacity:1;" d="M 177.984375 75.210938 L 175.019531 92.949219 L 180.867188 92.90625 L 180.855469 91.632812 L 176.515625 91.667969 L 179.230469 75.425781 L 177.984375 75.210938 "/>
<path style=" stroke:none;fill-rule:nonzero;fill:rgb(96.469116%,52.159119%,32.939148%);fill-opacity:1;" d="M 161.53125 95.144531 C 157.65625 95.144531 154.515625 93.628906 154.515625 91.753906 C 154.515625 89.878906 157.65625 88.359375 161.53125 88.359375 C 165.40625 88.359375 168.542969 89.878906 168.542969 91.753906 C 168.542969 93.628906 165.40625 95.144531 161.53125 95.144531 "/>
<path style=" stroke:none;fill-rule:nonzero;fill:rgb(96.469116%,52.159119%,32.939148%);fill-opacity:1;" d="M 194.871094 95.144531 C 191 95.144531 187.859375 93.628906 187.859375 91.753906 C 187.859375 89.878906 191 88.359375 194.871094 88.359375 C 198.746094 88.359375 201.886719 89.878906 201.886719 91.753906 C 201.886719 93.628906 198.746094 95.144531 194.871094 95.144531 "/>
<path style=" stroke:none;fill-rule:nonzero;fill:rgb(65.489197%,9.799194%,19.999695%);fill-opacity:1;" d="M 169.546875 101.042969 C 169.546875 101.042969 174.921875 102.078125 180.589844 100.605469 C 183.683594 99.800781 186.75 97.945312 189.269531 95.167969 C 189.269531 95.167969 191.558594 106.042969 182.722656 108.742188 C 173.527344 111.550781 169.546875 101.042969 169.546875 101.042969 "/>
<path style=" stroke:none;fill-rule:nonzero;fill:rgb(100%,100%,100%);fill-opacity:1;" d="M 181.441406 103.460938 C 184.402344 102.332031 185.148438 102.09375 187.96875 100.148438 C 189.84375 98.863281 189.269531 95.167969 189.269531 95.167969 C 186.746094 97.945312 183.683594 99.800781 180.589844 100.605469 C 174.921875 102.078125 169.546875 101.042969 169.546875 101.042969 C 169.546875 101.042969 170.867188 103.367188 172.78125 104.019531 C 174.210938 104.511719 176.996094 105.160156 181.441406 103.460938 "/>
<path style=" stroke:none;fill-rule:nonzero;fill:rgb(95.289612%,37.649536%,50.588989%);fill-opacity:1;" d="M 182.726562 108.761719 C 184.8125 108.128906 186.261719 107.027344 187.285156 105.730469 C 186.304688 104.613281 184.085938 104.1875 181.722656 104.824219 C 179.082031 105.527344 177.234375 107.285156 177.296875 108.902344 C 178.851562 109.347656 180.65625 109.394531 182.726562 108.761719 "/>
<g clip-path="url(#clip2)" clip-rule="nonzero">
<path style=" stroke:none;fill-rule:nonzero;fill:rgb(10.978699%,9.408569%,8.239746%);fill-opacity:1;" d="M 201.859375 37.875 C 195.652344 27.503906 176.078125 18.878906 158.816406 31.332031 C 157.476562 32.296875 156.335938 33.226562 155.34375 34.105469 C 145.238281 40.394531 137.777344 32.738281 137.777344 32.738281 C 138.007812 37.511719 140.351562 40.644531 142.667969 42.59375 C 139.65625 42.699219 136.65625 41.835938 132.933594 40.015625 C 132.933594 40.015625 136.648438 50.890625 146.191406 55.058594 L 146.191406 83.3125 C 146.191406 83.3125 149.898438 82.992188 149.898438 77.703125 C 149.898438 72.003906 149.898438 76.984375 149.898438 70.1875 C 149.898438 60.203125 158.410156 57.402344 161.949219 56.667969 C 172.828125 56.6875 180.273438 56.738281 185.640625 56.738281 C 186.148438 56.738281 186.6875 56.726562 187.242188 56.710938 C 187.484375 56.726562 187.734375 56.738281 188.007812 56.738281 C 202.214844 56.738281 206.84375 70.296875 206.84375 76.492188 C 206.84375 81.824219 209.773438 83.03125 210.578125 83.265625 C 210.578125 83.265625 210.578125 60.179688 210.578125 50.660156 C 210.578125 40.65625 204.9375 38.375 201.859375 37.875 "/>
</g>
</g>
</svg>
