<?xml version="1.0" encoding="UTF-8"?>
<svg xmlns="http://www.w3.org/2000/svg" xmlns:xlink="http://www.w3.org/1999/xlink" width="375pt" height="374.999991pt" viewBox="0 0 375 374.999991" version="1.2">
<defs>
<clipPath id="clip1">
  <path d="M 91.855469 10.097656 L 282.773438 10.097656 L 282.773438 364.847656 L 91.855469 364.847656 Z M 91.855469 10.097656 "/>
</clipPath>
</defs>
<g id="surface1">
<g clip-path="url(#clip1)" clip-rule="nonzero">
<path style=" stroke:none;fill-rule:nonzero;fill:rgb(0%,0%,0%);fill-opacity:1;" d="M 187.265625 76.855469 C 176.773438 76.828125 168.296875 68.289062 168.324219 57.785156 C 168.347656 47.277344 176.875 38.78125 187.363281 38.808594 C 197.816406 38.835938 206.277344 47.3125 206.308594 57.785156 C 206.351562 68.273438 197.894531 76.8125 187.425781 76.855469 C 187.371094 76.855469 187.316406 76.855469 187.265625 76.855469 Z M 226.140625 10.496094 L 226.140625 10.097656 L 148.484375 10.097656 L 148.484375 10.195312 L 91.855469 67.023438 L 91.855469 364.847656 L 282.773438 364.847656 L 282.773438 67.121094 L 226.140625 10.496094 "/>
</g>
</g>
</svg>
